<?xml version="1.0" encoding="utf-8"?>
<!-- Generator: Adobe Illustrator 24.3.0, SVG Export Plug-In . SVG Version: 6.00 Build 0)  -->
<svg version="1.1" id="Layer_1" xmlns="http://www.w3.org/2000/svg" xmlns:xlink="http://www.w3.org/1999/xlink" x="0px" y="0px"
	 viewBox="0 0 300 300" style="enable-background:new 0 0 300 300;" xml:space="preserve">
<style type="text/css">
	.st0{opacity:0.69;fill:#FFFFFF;}
</style>
<path class="st0" d="M150,25.5c-0.26,0-0.51,0-0.77,0.01l12.63,22.39l-10.3,18.46c43.99,0.98,79.57,36.05,81.37,79.83l19.18,12.37
	l22.26-14.44C271.3,78.09,216.79,25.5,150,25.5z M138.14,252.1L148.2,233l0.35-0.01c-44.56-0.6-80.67-36.14-82.16-80.48v-0.01
	l-18.49-9.76l-22.25,13.23C28.77,221.97,83.25,274.5,150,274.5L138.14,252.1z M143.37,25.68C77.7,29.12,25.5,83.46,25.5,150
	c0,0.3,0,0.6,0.01,0.9l22.39-14.73l18.5,10.57c1.5-43.4,36.2-78.37,79.49-80.31l10.7-18.53L143.37,25.68z M252.76,162.52
	l-19.77-11.74c-0.57,44.04-35.31,79.84-78.92,82.11l-10.01,18.56l12.71,22.87C222.38,270.8,274.5,216.49,274.5,150L252.76,162.52z"
	/>
</svg>
